HIERARCHY
ROOT Hips
{
	OFFSET 0.00000 0.00000 0.00000
	CHANNELS 6 Xposition Yposition Zposition Zrotation Yrotation Xrotation 
	JOINT LHipJoint
	{
		OFFSET 0 0 0
		CHANNELS 3 Zrotation Yrotation Xrotation
		JOINT LeftHip
		{
			OFFSET 1.58895 -1.83665 0.71753
			CHANNELS 3 Zrotation Yrotation Xrotation
			JOINT LeftKnee
			{
				OFFSET 2.50528 -6.88321 0.00000
				CHANNELS 3 Zrotation Yrotation Xrotation
				JOINT LeftAnkle
				{
					OFFSET 2.63244 -7.23257 0.00000
					CHANNELS 3 Zrotation Yrotation Xrotation
					JOINT LeftToe
					{
						OFFSET 0.23691 -0.65090 1.72750
						CHANNELS 3 Zrotation Yrotation Xrotation
						End Site
						{
							OFFSET 0.00000 -0.00000 0.92561
						}
					}
				}
			}
		}
	}
	JOINT RHipJoint
	{
		OFFSET 0 0 0
		CHANNELS 3 Zrotation Yrotation Xrotation
		JOINT RightHip
		{
			OFFSET -1.51435 -1.83665 0.71753
			CHANNELS 3 Zrotation Yrotation Xrotation
			JOINT RightKnee
			{
				OFFSET -2.54551 -6.99375 0.00000
				CHANNELS 3 Zrotation Yrotation Xrotation
				JOINT RightAnkle
				{
					OFFSET -2.66027 -7.30903 0.00000
					CHANNELS 3 Zrotation Yrotation Xrotation
					JOINT RightToe
					{
						OFFSET -0.22981 -0.63138 2.03959
						CHANNELS 3 Zrotation Yrotation Xrotation
						End Site
						{
							OFFSET -0.00000 -0.00000 1.07060
						}
					}
				}
			}
		}
	}
	JOINT lowerback
	{
		OFFSET 0 0 0
		CHANNELS 3 Zrotation Yrotation Xrotation
		JOINT Chest
		{
			OFFSET -0.02651 1.86275 -0.11152
			CHANNELS 3 Zrotation Yrotation Xrotation
			JOINT Chest2
			{
				OFFSET 0.01019 1.86224 0.04087
				CHANNELS 3 Zrotation Yrotation Xrotation
				JOINT lowerneck
				{
					OFFSET 0 0 0
					CHANNELS 3 Zrotation Yrotation Xrotation
					JOINT Neck
					{
						OFFSET -0.01926 1.80512 0.08867
						CHANNELS 3 Zrotation Yrotation Xrotation
						JOINT Head
						{
							OFFSET 0.05516 1.76451 -0.38475
							CHANNELS 3 Zrotation Yrotation Xrotation
							End Site
							{
								OFFSET 0.01592 1.82587 -0.14001
							}
						}
					}
				}
				JOINT LeftCollar
				{
					OFFSET 0 0 0
					CHANNELS 3 Zrotation Yrotation Xrotation
					JOINT LeftShoulder
					{
						OFFSET 3.47116 1.51376 0.14491
CHANNELS 3 Zrotation Xrotation Yrotation
						JOINT LeftElbow
						{
OFFSET 0 -4.780950 0.000000
CHANNELS 3 Zrotation Xrotation Yrotation
							JOINT LeftWrist
							{
OFFSET 0 -3.586150 -0.000000
CHANNELS 3 Zrotation Xrotation Yrotation
								JOINT lhand
								{
									OFFSET 0 0 0
CHANNELS 3 Zrotation Xrotation Yrotation
									JOINT LFingers
									{
OFFSET 0 -0.659810 0.000000
CHANNELS 3 Zrotation Xrotation Yrotation
										End Site
										{
OFFSET 0 -0.531960 0.000000
										}
									}
								}
								JOINT LThumb
								{
OFFSET 0 0.000000 0.000000
CHANNELS 3 Zrotation Xrotation Yrotation
									End Site
									{
OFFSET 0 -0.540080 0.540080
									}
								}
							}
						}
					}
				}
				JOINT RightCollar
				{
					OFFSET 0 0 0
					CHANNELS 3 Zrotation Yrotation Xrotation
					JOINT RightShoulder
					{
						OFFSET -3.31725 1.61216 0.35156
CHANNELS 3 Zrotation Xrotation Yrotation
						JOINT RightElbow
						{
OFFSET 0 -4.489130 0.000000
CHANNELS 3 Zrotation Xrotation Yrotation
							JOINT RightWrist
							{
OFFSET 0 -3.705100 0.000000
CHANNELS 3 Zrotation Xrotation Yrotation
								JOINT rhand
								{
									OFFSET 0 0 0
CHANNELS 3 Zrotation Xrotation Yrotation
									JOINT RFingers
									{
OFFSET 0 -0.449140 0.000000
CHANNELS 3 Zrotation Xrotation Yrotation
										End Site
										{
OFFSET 0 -0.362110 0.000000
										}
									}
								}
								JOINT RThumb
								{
OFFSET 0 0.000000 0.000000
CHANNELS 3 Zrotation Xrotation Yrotation
									End Site
									{
OFFSET 0 -0.367630 0.367630
									}
								}
							}
						}
					}
				}
			}
		}
	}
}
MOTION
Frames: 5
Frame Time: 0.008333333333333333
-0.508900 18.616200 5.498600 -0.286100 -5.648700 -0.606700 0.000000 0.000000 0.000000 -14.708800 -3.827400 -0.771100 1.390400 7.460300 21.086500 1.641000 5.155400 -26.520000 7.958000 -16.088300 -52.411400 0.000000 0.000000 0.000000 13.710500 7.502700 10.104800 0.000000 -0.000000 0.000000 -0.762400 -7.610700 -20.962400 -0.215600 2.989500 -8.249500 -2.760400 1.425100 6.612500 0.754400 1.704300 -1.537800 2.143700 0.944500 -5.417600 -1.153300 -1.574500 -13.784200 1.153600 -2.210200 21.926300 0.324700 -1.006800 9.189100 -0.000000 -0.000000 0.000000 90.000000 0.000000 0.000000 0.000000 0.000000 0.000000 -0.000000 0.000000 0.000000 0.000000 0.000000 0.000000 -0.000000 0.000000 -0.000000 0.000000 0.000000 -0.000000 -0.000000 -0.000000 0.000000 -5.979600 5.730200 43.389700 -15.343100 -24.621900 -3.367600 -14.973500 7.119100 39.607400 0.000000 0.000000 0.000000 7.125000 0.000000 -0.000000 28.999900 68.495700 -16.877000
-0.509064 18.615981 5.499750 -0.281884 -5.654833 -0.614092 0.000000 0.000000 0.000000 -14.710169 -3.780363 -0.787965 1.392317 7.465228 21.101230 1.638262 5.168323 -26.507679 7.984065 -16.107520 -52.505310 0.000000 0.000000 0.000000 13.708912 7.505985 10.115642 0.000000 0.000000 0.000000 -0.757472 -7.646238 -20.943728 -0.226771 3.064628 -8.458840 -2.769435 1.426086 6.601603 0.754564 1.705121 -1.527122 2.149231 0.944883 -5.400570 -1.159488 -1.583097 -13.781353 1.140513 -2.217702 21.929805 0.320429 -1.012276 9.189812 0.000000 0.000000 0.000000 90.000000 0.000000 0.000000 0.000000 0.000000 0.000000 0.000000 0.000000 0.000000 0.000000 0.000000 0.000000 0.000000 0.000000 0.000000 0.000000 0.000000 0.000000 0.000000 0.000000 0.000000 -5.971879 5.712732 43.358378 -15.355202 -24.638601 -3.372638 -14.877893 7.112858 39.743035 0.000000 0.000000 0.000000 7.125000 0.000000 0.000000 29.315853 68.578877 -17.127134
-0.509238 18.615638 5.500881 -0.283158 -5.661898 -0.620609 0.000000 0.000000 0.000000 -14.706428 -3.744602 -0.803908 1.395194 7.472621 21.123335 1.637494 5.175222 -26.506036 8.004791 -16.122801 -52.579998 0.000000 0.000000 0.000000 13.713547 7.509994 10.126817 0.000000 0.000000 0.000000 -0.753134 -7.678217 -20.927910 -0.236885 3.132419 -8.647749 -2.772789 1.426653 6.590240 0.756936 1.706028 -1.516911 2.153867 0.945162 -5.383655 -1.167312 -1.589524 -13.777820 1.127749 -2.221845 21.932643 0.316938 -1.016286 9.190143 0.000000 0.000000 0.000000 90.000000 0.000000 0.000000 0.000000 0.000000 0.000000 0.000000 0.000000 0.000000 0.000000 0.000000 0.000000 0.000000 0.000000 0.000000 0.000000 0.000000 0.000000 0.000000 0.000000 0.000000 -5.967689 5.696092 43.329721 -15.367845 -24.656054 -3.377904 -14.793638 7.112296 39.864787 0.000000 0.000000 0.000000 7.125000 0.000000 0.000000 29.597882 68.653985 -17.351090
-0.509457 18.614707 5.501921 -0.310537 -5.673397 -0.622964 0.000000 0.000000 0.000000 -14.678392 -3.762453 -0.815462 1.402641 7.491732 21.180502 1.646091 5.153483 -26.555154 8.000137 -16.119351 -52.563296 0.000000 0.000000 0.000000 13.747771 7.517441 10.139576 0.000000 0.000000 0.000000 -0.751600 -7.693275 -20.925665 -0.241977 3.165329 -8.739523 -2.749134 1.425229 6.576660 0.769804 1.707343 -1.508916 2.154250 0.944943 -5.367282 -1.182918 -1.585637 -13.771030 1.116524 -2.210017 21.932314 0.317157 -1.013329 9.188665 0.000000 0.000000 0.000000 90.000000 0.000000 0.000000 0.000000 0.000000 0.000000 0.000000 0.000000 0.000000 0.000000 0.000000 0.000000 0.000000 0.000000 0.000000 0.000000 0.000000 0.000000 0.000000 0.000000 0.000000 -5.980283 5.683388 43.313732 -15.383068 -24.677081 -3.384256 -14.763357 7.138744 39.920531 0.000000 0.000000 0.000000 7.125000 0.000000 0.000000 29.718624 68.690728 -17.450585
-0.509600 18.613244 5.502847 -0.340733 -5.681623 -0.622216 0.000000 0.000000 0.000000 -14.645959 -3.771359 -0.821135 1.407062 7.503058 21.214393 1.653146 5.133743 -26.594546 7.994112 -16.114911 -52.541609 0.000000 0.000000 0.000000 13.783746 7.521729 10.150507 0.000000 0.000000 0.000000 -0.752104 -7.695297 -20.932174 -0.244063 3.178883 -8.777304 -2.717409 1.421769 6.563575 0.781321 1.706487 -1.502196 2.148905 0.943430 -5.352070 -1.199438 -1.580359 -13.771187 1.110818 -2.197314 21.933356 0.319470 -1.009383 9.189032 0.000000 0.000000 0.000000 90.000000 0.000000 0.000000 0.000000 0.000000 0.000000 0.000000 0.000000 0.000000 0.000000 0.000000 0.000000 0.000000 0.000000 0.000000 0.000000 0.000000 0.000000 0.000000 0.000000 0.000000 -5.992268 5.671370 43.305241 -15.397682 -24.697252 -3.390360 -14.767675 7.174956 39.945272 0.000000 0.000000 0.000000 7.125000 0.000000 0.000000 29.752257 68.712607 -17.485906
